<svg id="visual" viewBox="0 0 500 375" width="500" height="375" xmlns="http://www.w3.org/2000/svg" xmlns:xlink="http://www.w3.org/1999/xlink" version="1.1"><path d="M0 260L16.7 264.3C33.3 268.7 66.7 277.3 100 282.8C133.3 288.3 166.7 290.7 200 284.2C233.3 277.7 266.7 262.3 300 258C333.3 253.7 366.7 260.3 400 269C433.3 277.7 466.7 288.3 483.3 293.7L500 299L500 376L483.3 376C466.7 376 433.3 376 400 376C366.7 376 333.3 376 300 376C266.7 376 233.3 376 200 376C166.7 376 133.3 376 100 376C66.7 376 33.3 376 16.7 376L0 376Z" fill="#f5f5fa" stroke-linecap="round" stroke-linejoin="miter"></path></svg>